<svg width="31" height="31" viewBox="0 0 31 31" fill="none" xmlns="http://www.w3.org/2000/svg">
<g clip-path="url(#clip0)">
<path d="M16.9174 31H14.0826C14.0639 31 12.2087 30.9953 11.5547 30.5903C11.0823 30.298 10.5998 29.5258 10.5464 29.4387L7.7734 25.0686C7.74657 25.0264 7.73074 24.9781 7.72712 24.9282C7.72486 24.8967 7.50312 21.7533 7.38327 20.2536C7.2669 18.7981 6.76144 17.5409 6.75647 17.5284C6.73672 17.4801 6.72994 17.4275 6.73672 17.3758L6.78104 17.0369C6.55703 16.721 6.05941 15.7723 5.84445 13.392C5.62044 10.9101 6.41518 9.93133 6.75843 9.62999L6.87586 5.12357C6.87194 4.93092 6.89802 2.94573 9.5587 1.41957C12.1625 -0.0740256 15.2524 -0.00543585 15.4999 0.00240298C15.7479 -0.00543585 18.8376 -0.0740256 21.4413 1.41957C24.1021 2.94588 24.1281 4.93152 24.1241 5.12372L24.2416 9.62999C24.5847 9.93133 25.3796 10.9101 25.1556 13.392C24.9404 15.7725 24.4428 16.721 24.219 17.0369L24.2631 17.376C24.2698 17.4275 24.263 17.48 24.2435 17.5282C24.2384 17.5407 23.7328 18.8025 23.6167 20.2536C23.4967 21.7533 23.2748 24.8967 23.2727 24.9282C23.2693 24.9781 23.2533 25.0264 23.2264 25.0686L20.4514 29.4425C20.4002 29.5258 19.9177 30.2978 19.4453 30.5903C18.7913 30.9953 16.9361 31 16.9174 31ZM8.32333 24.8099L11.0579 29.1194C11.1851 29.3261 11.5743 29.8931 11.8722 30.0774C12.1806 30.2686 13.2641 30.3969 14.0826 30.3969H16.9175C17.7361 30.3969 18.8195 30.2686 19.1279 30.0776C19.4255 29.8934 19.8238 29.3122 19.94 29.1232L22.6767 24.8099C22.7106 24.3307 22.8966 21.7089 23.0076 20.3075C22.8702 20.5745 22.7365 20.8158 22.6182 21.0001C22.4504 21.261 22.2822 21.4947 22.1183 21.7188C22.0214 21.8601 21.9189 22.0004 21.8112 22.14C21.5387 22.5202 21.2762 22.9185 21.0163 23.4584C20.5875 24.3494 20.3347 25.1246 20.2646 25.3502L20.4937 26.6151C20.5037 26.6705 20.4981 26.7277 20.4774 26.78C20.3683 27.055 19.8048 28.4435 19.4257 28.778C19.0639 29.0974 18.2895 28.8502 17.7706 28.6262L17.5428 29.3511C17.5033 29.4767 17.387 29.5622 17.2552 29.5622H13.7449C13.6132 29.5622 13.4968 29.4767 13.4573 29.351L13.2297 28.626C12.7107 28.85 11.9367 29.0971 11.5746 28.778C11.1955 28.4435 10.632 27.0548 10.5229 26.78C10.5021 26.7275 10.4965 26.6704 10.5066 26.6151L10.7356 25.3502C10.6656 25.1246 10.4127 24.3494 9.98395 23.4584C9.82401 23.1263 9.66316 22.8478 9.4996 22.5941C9.24138 22.2804 9.0041 21.9543 8.80722 21.6165C8.66703 21.4234 8.52442 21.2215 8.38197 21.0001C8.26363 20.8158 8.12992 20.5744 7.99259 20.3075C8.10339 21.7089 8.28941 24.3307 8.32333 24.8099ZM15.4999 28.9593H17.0336L17.175 28.5094H13.8251L13.9664 28.9593H15.4999ZM11.1153 26.6374C11.4025 27.3482 11.8011 28.1738 11.9735 28.326C12.0917 28.3826 12.6042 28.2448 13.0901 28.0277C13.0709 27.9249 13.036 27.7739 12.9715 27.5698C12.9389 27.4668 12.9093 27.3494 12.875 27.2132C12.8397 27.0729 12.7996 26.9145 12.7486 26.7437L12.2596 27.2441C12.1939 27.3112 12.1016 27.3442 12.0074 27.3326C11.9141 27.3212 11.8315 27.2671 11.784 27.1859L11.1969 26.1862L11.1153 26.6374ZM17.9099 28.0276C18.3964 28.2443 18.9106 28.382 19.0346 28.32C19.1994 28.1735 19.5975 27.348 19.8847 26.6374L19.803 26.1863L19.2158 27.1861C19.1683 27.2672 19.0857 27.3213 18.9924 27.3328C18.8984 27.3441 18.806 27.3112 18.7402 27.2443L18.2512 26.744C18.2003 26.9146 18.1602 27.0732 18.1249 27.2134C18.0905 27.3494 18.061 27.4669 18.0284 27.5698C17.9642 27.7733 17.9291 27.9242 17.9099 28.0276ZM13.6812 27.9064H17.319C17.3434 27.7776 17.3846 27.6067 17.4536 27.3881C17.4807 27.3022 17.5083 27.1926 17.5403 27.0658C17.582 26.9003 17.6318 26.7028 17.7004 26.4845H13.3001C13.3685 26.7028 13.4183 26.9003 13.4602 27.0658C13.4921 27.1926 13.5199 27.3022 13.5469 27.3883C13.6156 27.6067 13.6566 27.7776 13.6812 27.9064ZM18.48 26.1152L18.8958 26.5406L19.6764 25.2115C19.715 25.0835 19.8512 24.6481 20.0882 24.0656C20.0838 24.0702 20.0795 24.0747 20.0751 24.0792C19.7443 24.4237 19.4319 24.749 19.1539 25.0607C18.8447 25.4073 18.6324 25.7703 18.48 26.1152ZM11.3236 25.2115L12.1044 26.5406L12.5201 26.1152C12.3674 25.7703 12.1555 25.4074 11.8463 25.0607C11.5784 24.7604 11.2651 24.4484 10.9332 24.1186C11.1569 24.6742 11.2863 25.0874 11.3236 25.2115ZM15.4999 25.8814H17.9247C18.0986 25.4861 18.3438 25.0628 18.7039 24.6593C18.9893 24.3392 19.3054 24.01 19.6402 23.6615C20.2304 23.0469 20.8371 22.415 21.3285 21.7784C21.4044 21.6725 21.4799 21.5697 21.555 21.4674C21.5785 21.4353 21.6022 21.403 21.626 21.3706C22.0542 20.7417 22.0772 20.0345 22.1014 19.2858C22.1132 18.9228 22.1254 18.5474 22.1848 18.1711C22.2095 18.0144 22.2154 17.8336 22.2077 17.6393C21.7377 18.3697 20.6576 18.7983 20.1072 18.93C19.4851 19.0786 18.1752 19.315 18.1196 19.325C18.021 19.3431 17.92 19.3103 17.8501 19.2384C17.7622 19.1481 17.3187 18.6777 17.2089 18.2862L17.2006 18.2568C16.8787 18.3475 16.3206 18.4567 15.4998 18.4567C14.6791 18.4567 14.1209 18.3474 13.7991 18.2568L13.7908 18.2862C13.681 18.6777 13.2375 19.1481 13.1496 19.2384C13.0797 19.3103 12.9784 19.3428 12.8801 19.325C12.8246 19.315 11.5146 19.0788 10.8924 18.93C10.3421 18.7984 9.26218 18.3697 8.79215 17.6393C8.78431 17.8338 8.79019 18.0145 8.81491 18.1711C8.87702 18.5646 8.88863 18.9398 8.89978 19.3027C8.92119 19.9887 8.94124 20.6369 9.31298 21.2875C9.35715 21.3481 9.40102 21.408 9.44458 21.4674C9.62427 21.7123 9.80713 21.9615 9.98983 22.2431C10.4021 22.7401 10.8779 23.2132 11.3437 23.6766C11.6872 24.0183 12.0119 24.3412 12.2955 24.6591C12.6556 25.0628 12.9008 25.4861 13.0747 25.8814H15.4999V25.8814ZM7.49437 17.7845C7.60773 18.0512 7.95174 18.8516 8.3066 19.5855C8.30328 19.4971 8.30041 19.4089 8.29755 19.3213C8.287 18.977 8.27584 18.6211 8.21961 18.2651C8.04415 17.1533 8.6414 15.1598 8.74572 14.824V12.0355C8.74572 10.7671 8.52638 9.45935 8.28896 8.41512V14.5801C8.28896 14.6048 8.28579 14.6295 8.27976 14.6535L7.49437 17.7845ZM22.2543 14.824C22.3586 15.1598 22.9557 17.1533 22.7804 18.2651C22.727 18.6042 22.7153 18.9606 22.7041 19.3052C22.7011 19.3978 22.6981 19.4906 22.6943 19.5838C23.049 18.8503 23.3926 18.051 23.5058 17.7845L22.7202 14.6533C22.7142 14.6294 22.711 14.6046 22.711 14.5799V8.41633C22.4736 9.46085 22.2543 10.7686 22.2543 12.0353V14.824ZM9.16585 15.9464C9.10585 16.3088 9.07239 16.822 9.22781 17.1801C9.48589 17.7748 10.4718 18.2093 11.0327 18.3435C11.5119 18.458 12.4475 18.6326 12.8242 18.7016C12.9852 18.5176 13.1692 18.27 13.2104 18.1234L13.2405 18.0156C12.8127 17.7797 11.8124 17.2317 11.0678 16.8536C10.4071 16.5182 9.6089 16.1486 9.16585 15.9464ZM17.7595 18.0156L17.7896 18.1234C17.8306 18.27 18.0147 18.5176 18.1758 18.7016C18.5527 18.6326 19.4882 18.4579 19.9672 18.3435C20.5281 18.2093 21.5141 17.775 21.7722 17.1801C21.9284 16.8202 21.8949 16.3076 21.8346 15.9461C21.3917 16.1481 20.5931 16.5181 19.9323 16.8535C19.1875 17.2317 18.1873 17.7795 17.7595 18.0156ZM13.7315 17.598C13.7915 17.6242 14.35 17.8535 15.4999 17.8535C16.6498 17.8535 17.2085 17.6242 17.2685 17.598C17.399 17.5255 18.7258 16.7899 19.6592 16.3159C20.4358 15.9216 21.3983 15.4814 21.7695 15.3133C21.7093 15.1003 21.6671 14.9675 21.6656 14.9622C21.6561 14.9325 21.6511 14.9015 21.6511 14.8702V12.0355C21.6511 9.60436 22.4008 7.10996 22.6501 6.34763C22.4516 6.23729 22.0321 6.01765 21.1605 5.59782C20.0529 5.06463 19.1525 4.90544 18.7248 4.8581L17.936 12.1725C17.9212 12.3091 17.816 12.4185 17.6802 12.4386L15.5438 12.7524C15.5145 12.7566 15.485 12.7566 15.4561 12.7524L13.3198 12.4384C13.184 12.4185 13.0786 12.3091 13.064 12.1725L12.3766 5.79997C12.3759 5.79515 12.3754 5.79047 12.3749 5.7855L12.275 4.8581C11.8476 4.90544 10.9471 5.06463 9.83939 5.59797C8.96762 6.01765 8.54824 6.23729 8.34971 6.34763C8.59904 7.11011 9.34871 9.60436 9.34871 12.0355V14.8704C9.34871 14.9016 9.34388 14.9327 9.33439 14.9622C9.33258 14.9675 9.29052 15.1004 9.23037 15.3134C9.60166 15.4815 10.564 15.9217 11.3407 16.3161C12.2744 16.7899 13.601 17.5256 13.7315 17.598ZM23.314 14.5428L23.8159 16.5434C24.0085 16.1918 24.3786 15.2896 24.5548 13.3381C24.7933 10.6968 23.7999 10.0465 23.7898 10.0402C23.7039 9.98666 23.6452 9.89018 23.6425 9.78888L23.521 5.13156C23.5209 5.12478 23.5209 5.11799 23.5212 5.11121C23.5231 5.04051 23.5447 3.32154 21.1412 1.94281C18.6385 0.507254 15.5423 0.604938 15.5111 0.605541C15.5037 0.605842 15.4957 0.605842 15.4885 0.605541C15.4579 0.604335 12.3617 0.506952 9.85853 1.94281C7.45503 3.32154 7.47643 5.04051 7.47869 5.11302C7.47885 5.11859 7.47885 5.12598 7.47869 5.13156L7.35719 9.78888C7.35448 9.8944 7.29674 9.99088 7.20494 10.043C7.19981 10.0464 6.20639 10.6967 6.44487 13.3381C6.62049 15.2837 6.98892 16.1864 7.18414 16.5422L7.68567 14.5428V6.22417C7.68461 6.1794 7.69366 6.13553 7.7113 6.09543C7.71115 6.09513 7.7116 6.09498 7.7116 6.09483C7.71175 6.09468 7.7119 6.09453 7.7119 6.09408C7.71416 6.08925 7.71642 6.08443 7.71898 6.07961C7.71883 6.0793 7.71914 6.079 7.71929 6.079C7.71944 6.0787 7.71959 6.07855 7.71959 6.0784C7.72954 6.0591 7.74175 6.04086 7.75577 6.02398C7.76029 6.0184 7.76557 6.01222 7.77325 6.00468C7.78667 5.99112 7.80159 5.97891 7.81757 5.9679C7.93998 5.8776 8.3069 5.66641 9.57769 5.05453C11.2605 4.24426 12.4918 4.23492 12.5433 4.23492C12.6972 4.23492 12.8266 4.35099 12.843 4.50415L12.946 5.45853H18.0536L18.1565 4.50415C18.173 4.35099 18.3023 4.23492 18.4562 4.23492C18.5078 4.23492 19.7391 4.24426 21.4219 5.05453C22.6963 5.66807 23.0615 5.87866 23.1829 5.9685C23.198 5.97876 23.2118 5.99036 23.2245 6.00303C23.234 6.01222 23.2402 6.01961 23.2456 6.02609C23.2492 6.03061 23.2528 6.03514 23.2561 6.03981C23.2777 6.06935 23.2935 6.10267 23.3032 6.13749C23.3033 6.13764 23.3033 6.13764 23.3033 6.13764C23.3109 6.16523 23.3145 6.19417 23.3139 6.22327V14.5428H23.314ZM13.6384 11.8757L15.4999 12.1491L17.3616 11.8757L17.9888 6.06152H13.0112L13.6384 11.8757Z" fill="#F8F8F8"/>
</g>
<defs>
<clipPath id="clip0">
<rect width="31" height="31" fill="white"/>
</clipPath>
</defs>
</svg>
