<svg width="58" height="58" viewBox="0 0 58 58" fill="none" xmlns="http://www.w3.org/2000/svg">
<circle cx="29" cy="29" r="29" fill="#101626"/>
<path d="M35.891 29.0008C39.7632 28.9417 42.9237 31.9894 42.9987 35.8613C43.0097 36.4298 42.9528 36.9831 42.8358 37.5139C42.6376 38.4126 42.5197 39.3271 42.5197 40.2474V42.0262C42.5197 42.2988 42.2988 42.5197 42.0262 42.5197H40.2474C39.3271 42.5197 38.4126 42.6376 37.5139 42.8358C36.9832 42.9528 36.4299 43.0097 35.8614 42.9987C31.9895 42.9237 28.9418 39.7633 29.0008 35.8912C29.0585 32.1117 32.1115 29.0586 35.891 29.0008Z" fill="url(#paint0_linear)"/>
<path d="M28.648 17.0011C23.3928 16.9209 19.1036 21.057 19.0018 26.3118C18.9869 27.0832 19.064 27.8343 19.2229 28.5545C19.4919 29.7741 19.6518 31.0153 19.6518 32.2643V34.6784C19.6518 35.0483 19.9517 35.3482 20.3216 35.3482H22.7358C23.9847 35.3482 25.2258 35.5081 26.4455 35.7771C27.1657 35.936 27.9167 36.0131 28.6882 35.9982C33.9429 35.8964 38.079 31.6074 37.9989 26.3523C37.9206 21.2229 33.7773 17.0795 28.648 17.0011Z" fill="url(#paint1_linear)"/>
<defs>
<linearGradient id="paint0_linear" x1="34.587" y1="34.5874" x2="44.8641" y2="44.8646" gradientUnits="userSpaceOnUse">
<stop stop-color="#A7F3CE"/>
<stop offset="1" stop-color="#61DB99"/>
</linearGradient>
<linearGradient id="paint1_linear" x1="25.0292" y1="24.9642" x2="37.1166" y2="37.0515" gradientUnits="userSpaceOnUse">
<stop stop-color="#62E1FB"/>
<stop offset="1" stop-color="#00A2F3"/>
</linearGradient>
</defs>
</svg>
