<svg width="59" height="59" viewBox="0 0 59 59" fill="none" xmlns="http://www.w3.org/2000/svg">
<circle cx="29.5" cy="29.5" r="29.5" fill="#101626"/>
<path d="M32.5638 25.1484C36.5807 25.0871 39.8593 28.2454 39.9371 32.2579C39.9485 32.847 39.8895 33.4205 39.7681 33.9705C39.5625 34.9018 39.4402 35.8495 39.4402 36.8032V38.6466C39.4402 38.9291 39.2111 39.158 38.9283 39.158H37.083C36.1283 39.158 35.1796 39.2801 34.2474 39.4856C33.6968 39.6069 33.1228 39.6658 32.5331 39.6543C28.5166 39.5767 25.355 36.3016 25.4163 32.2889C25.476 28.3721 28.6431 25.2082 32.5638 25.1484Z" fill="url(#paint0_linear)"/>
<path d="M26.0035 18.3782C21.2335 18.3005 17.3402 22.301 17.2478 27.3835C17.2343 28.1297 17.3043 28.8561 17.4485 29.5527C17.6927 30.7323 17.8378 31.9328 17.8378 33.1408V35.4759C17.8378 35.8336 18.11 36.1236 18.4457 36.1236H20.6371C21.7707 36.1236 22.8973 36.2783 24.0044 36.5385C24.6581 36.6922 25.3398 36.7668 26.04 36.7523C30.8097 36.6539 34.564 32.5055 34.4913 27.4227C34.4202 22.4615 30.6594 18.4539 26.0035 18.3782Z" fill="url(#paint1_linear)"/>
<defs>
<linearGradient id="paint0_linear" x1="10.4647" y1="-76.8365" x2="21.1149" y2="-66.1754" gradientUnits="userSpaceOnUse">
<stop stop-color="#A7F3CE"/>
<stop offset="1" stop-color="#61DB99"/>
</linearGradient>
<linearGradient id="paint1_linear" x1="22.7188" y1="26.0801" x2="34.3864" y2="37.0296" gradientUnits="userSpaceOnUse">
<stop stop-color="#62E1FB"/>
<stop offset="1" stop-color="#00A2F3"/>
</linearGradient>
</defs>
</svg>
