<svg width="59" height="59" viewBox="0 0 59 59" fill="none" xmlns="http://www.w3.org/2000/svg">
<circle cx="29.5" cy="29.5" r="29.5" fill="#101626"/>
<path d="M29.8759 18.8792C29.2692 18.8792 28.7773 18.3873 28.7773 17.7805V15.0987C28.7773 14.4919 29.2692 14 29.8759 14C30.4827 14 30.9746 14.4919 30.9746 15.0987V17.7805C30.9746 18.3873 30.4827 18.8792 29.8759 18.8792Z" fill="#2DBFF7"/>
<path d="M29.7815 43.9435C28.0725 43.9435 26.6821 42.553 26.6821 40.8441C26.6821 39.1351 28.0725 37.7448 29.7815 37.7448C31.4905 37.7448 32.8808 39.1351 32.8808 40.8441C32.8808 42.553 31.4905 43.9435 29.7815 43.9435Z" fill="#85E6B6"/>
<path d="M38.6259 37.8568H20.0999C19.2092 37.8568 18.6898 36.8498 19.2027 36.1241L21.8676 32.3536V24.9872C21.8676 20.8542 25.23 17.4919 29.363 17.4919C33.4959 17.4919 36.8582 20.8543 36.8582 24.9872V32.3536L39.523 36.1241C40.037 36.8512 39.5147 37.8568 38.6259 37.8568Z" fill="#90EBBC"/>
<path d="M39.6355 36.1241L36.9707 32.3535V24.9872C36.9707 20.8543 33.6085 17.492 29.4756 17.4919V37.8568H38.7384C39.6272 37.8568 40.1495 36.8512 39.6355 36.1241Z" fill="#31C2F7"/>
</svg>
